<?xml version="1.0" standalone="no"?>
<!DOCTYPE svg PUBLIC "-//W3C//DTD SVG 1.1//EN" "http://www.w3.org/Graphics/SVG/1.1/DTD/svg11.dtd">
<svg width="758" height="892" version="1.1" xmlns="http://www.w3.org/2000/svg">
<rect x="181" y="25" width="61" height="22" style="fill:rgb(255,255,255);stroke:rgb(0,0,0);stroke-width:1;stroke-dasharray:4,1"/>
<text x="211.5" y="36" style="font-family:Arial;font-size:8pt;fill:rgb(0,0,0);font-weight:bold;text-anchor:middle;dominant-baseline:central">EXPIRY</text>
<line x1="182" y1="46" x2="185" y2="43" style="stroke:rgb(0,0,0);stroke-width:2"/>
<path d="M185 43 L187 45 L188 40 L183 41 L185 43 Z" style="fill:rgb(0,0,0)"/>

<rect x="181" y="77" width="101" height="22" style="fill:rgb(255,255,255);stroke:rgb(0,0,0);stroke-width:1;stroke-dasharray:4,1"/>
<text x="231.5" y="88" style="font-family:Arial;font-size:8pt;fill:rgb(0,0,0);font-weight:bold;text-anchor:middle;dominant-baseline:central">DATASCHEMA</text>
<line x1="182" y1="98" x2="185" y2="95" style="stroke:rgb(0,0,0);stroke-width:2"/>
<path d="M185 95 L187 97 L188 92 L183 93 L185 95 Z" style="fill:rgb(0,0,0)"/>
<rect x="277" y="83" width="10" height="10" style="fill:rgb(255,255,255);stroke:rgb(0,0,0);stroke-width:1"/>
<line x1="279" y1="88" x2="285" y2="88" style="stroke:rgb(0,0,0);stroke-width:1"/>
<line x1="282" y1="85" x2="282" y2="91" style="stroke:rgb(0,0,0);stroke-width:1"/>

<rect x="335" y="132" width="87" height="22" style="fill:rgb(255,255,255);stroke:rgb(0,0,0);stroke-width:1;stroke-dasharray:4,1"/>
<rect x="332" y="129" width="87" height="22" style="fill:rgb(255,255,255);stroke:rgb(0,0,0);stroke-width:1;stroke-dasharray:4,1"/>
<text x="375.5" y="140" style="font-family:Arial;font-size:8pt;fill:rgb(0,0,0);font-weight:bold;text-anchor:middle;dominant-baseline:central">EXTENSION</text>
<text x="414" y="161" style="font-family:Arial;font-size:7.2pt;fill:rgb(0,0,0);text-anchor:end;dominant-baseline:central">0..∞</text>
<line x1="334" y1="131" x2="342" y2="131" style="stroke:rgb(0,0,0);stroke-width:1"/>
<line x1="334" y1="133" x2="340" y2="133" style="stroke:rgb(0,0,0);stroke-width:1"/>
<line x1="334" y1="135" x2="340" y2="135" style="stroke:rgb(0,0,0);stroke-width:1"/>
<line x1="334" y1="137" x2="340" y2="137" style="stroke:rgb(0,0,0);stroke-width:1"/>
<line x1="333" y1="150" x2="336" y2="147" style="stroke:rgb(0,0,0);stroke-width:2"/>
<path d="M336 147 L338 149 L339 144 L334 145 L336 147 Z" style="fill:rgb(0,0,0)"/>
<rect x="414" y="135" width="10" height="10" style="fill:rgb(255,255,255);stroke:rgb(0,0,0);stroke-width:1"/>
<line x1="416" y1="140" x2="422" y2="140" style="stroke:rgb(0,0,0);stroke-width:1"/>
<line x1="419" y1="137" x2="419" y2="143" style="stroke:rgb(0,0,0);stroke-width:1"/>

<rect x="332" y="181" width="49" height="22" style="fill:rgb(255,255,255);stroke:rgb(0,0,0);stroke-width:1;stroke-dasharray:4,1"/>
<text x="356.5" y="192" style="font-family:Arial;font-size:8pt;fill:rgb(0,0,0);font-weight:bold;text-anchor:middle;dominant-baseline:central">TEST</text>
<line x1="333" y1="202" x2="336" y2="199" style="stroke:rgb(0,0,0);stroke-width:2"/>
<path d="M336 199 L338 201 L339 196 L334 197 L336 199 Z" style="fill:rgb(0,0,0)"/>

<rect x="332" y="233" width="64" height="22" style="fill:rgb(255,255,255);stroke:rgb(0,0,0);stroke-width:1"/>
<text x="364" y="244" style="font-family:Arial;font-size:8pt;fill:rgb(0,0,0);font-weight:bold;text-anchor:middle;dominant-baseline:central">ENTITY</text>
<line x1="333" y1="254" x2="336" y2="251" style="stroke:rgb(0,0,0);stroke-width:2"/>
<path d="M336 251 L338 253 L339 248 L334 249 L336 251 Z" style="fill:rgb(0,0,0)"/>
<rect x="391" y="239" width="10" height="10" style="fill:rgb(255,255,255);stroke:rgb(0,0,0);stroke-width:1"/>
<line x1="393" y1="244" x2="399" y2="244" style="stroke:rgb(0,0,0);stroke-width:1"/>
<line x1="396" y1="241" x2="396" y2="247" style="stroke:rgb(0,0,0);stroke-width:1"/>

<rect x="332" y="285" width="71" height="22" style="fill:rgb(255,255,255);stroke:rgb(0,0,0);stroke-width:1"/>
<text x="367.5" y="296" style="font-family:Arial;font-size:8pt;fill:rgb(0,0,0);font-weight:bold;text-anchor:middle;dominant-baseline:central">ACCESS</text>
<line x1="333" y1="306" x2="336" y2="303" style="stroke:rgb(0,0,0);stroke-width:2"/>
<path d="M336 303 L338 305 L339 300 L334 301 L336 303 Z" style="fill:rgb(0,0,0)"/>
<rect x="398" y="291" width="10" height="10" style="fill:rgb(255,255,255);stroke:rgb(0,0,0);stroke-width:1"/>
<line x1="400" y1="296" x2="406" y2="296" style="stroke:rgb(0,0,0);stroke-width:1"/>
<line x1="403" y1="293" x2="403" y2="299" style="stroke:rgb(0,0,0);stroke-width:1"/>

<rect x="332" y="337" width="121" height="22" style="fill:rgb(255,255,255);stroke:rgb(0,0,0);stroke-width:1;stroke-dasharray:4,1"/>
<text x="392.5" y="348" style="font-family:Arial;font-size:8pt;fill:rgb(0,0,0);font-weight:bold;text-anchor:middle;dominant-baseline:central">DISPUTES-GROUP</text>
<line x1="333" y1="358" x2="336" y2="355" style="stroke:rgb(0,0,0);stroke-width:2"/>
<path d="M336 355 L338 357 L339 352 L334 353 L336 355 Z" style="fill:rgb(0,0,0)"/>
<rect x="448" y="343" width="10" height="10" style="fill:rgb(255,255,255);stroke:rgb(0,0,0);stroke-width:1"/>
<line x1="450" y1="348" x2="456" y2="348" style="stroke:rgb(0,0,0);stroke-width:1"/>
<line x1="453" y1="345" x2="453" y2="351" style="stroke:rgb(0,0,0);stroke-width:1"/>

<rect x="511" y="392" width="87" height="22" style="fill:rgb(255,255,255);stroke:rgb(0,0,0);stroke-width:1;stroke-dasharray:4,1"/>
<rect x="508" y="389" width="87" height="22" style="fill:rgb(255,255,255);stroke:rgb(0,0,0);stroke-width:1;stroke-dasharray:4,1"/>
<text x="551.5" y="400" style="font-family:Arial;font-size:8pt;fill:rgb(0,0,0);font-weight:bold;text-anchor:middle;dominant-baseline:central">EXTENSION</text>
<text x="590" y="421" style="font-family:Arial;font-size:7.2pt;fill:rgb(0,0,0);text-anchor:end;dominant-baseline:central">0..∞</text>
<line x1="510" y1="391" x2="518" y2="391" style="stroke:rgb(0,0,0);stroke-width:1"/>
<line x1="510" y1="393" x2="516" y2="393" style="stroke:rgb(0,0,0);stroke-width:1"/>
<line x1="510" y1="395" x2="516" y2="395" style="stroke:rgb(0,0,0);stroke-width:1"/>
<line x1="510" y1="397" x2="516" y2="397" style="stroke:rgb(0,0,0);stroke-width:1"/>
<line x1="509" y1="410" x2="512" y2="407" style="stroke:rgb(0,0,0);stroke-width:2"/>
<path d="M512 407 L514 409 L515 404 L510 405 L512 407 Z" style="fill:rgb(0,0,0)"/>
<rect x="590" y="395" width="10" height="10" style="fill:rgb(255,255,255);stroke:rgb(0,0,0);stroke-width:1"/>
<line x1="592" y1="400" x2="598" y2="400" style="stroke:rgb(0,0,0);stroke-width:1"/>
<line x1="595" y1="397" x2="595" y2="403" style="stroke:rgb(0,0,0);stroke-width:1"/>

<rect x="508" y="441" width="104" height="22" style="fill:rgb(255,255,255);stroke:rgb(0,0,0);stroke-width:1;stroke-dasharray:4,1"/>
<text x="560" y="452" style="font-family:Arial;font-size:8pt;fill:rgb(0,0,0);font-weight:bold;text-anchor:middle;dominant-baseline:central">CONSEQUENCE</text>
<line x1="510" y1="443" x2="518" y2="443" style="stroke:rgb(0,0,0);stroke-width:1"/>
<line x1="510" y1="445" x2="516" y2="445" style="stroke:rgb(0,0,0);stroke-width:1"/>
<line x1="510" y1="447" x2="516" y2="447" style="stroke:rgb(0,0,0);stroke-width:1"/>
<line x1="510" y1="449" x2="516" y2="449" style="stroke:rgb(0,0,0);stroke-width:1"/>

<path d="M574 493 L597 493 L603 499 L603 507 L597 513 L574 513 L568 507 L568 499 Z" style="fill:rgb(255,255,255);stroke:rgb(0,0,0);stroke-width:1"/>
<line x1="571" y1="503" x2="600" y2="503" style="stroke:rgb(0,0,0);stroke-width:1"/>
<ellipse cx="580" cy="503" rx="2" ry="2" style="rgb(0,0,0)"/>
<ellipse cx="585" cy="503" rx="2" ry="2" style="rgb(0,0,0)"/>
<ellipse cx="590" cy="503" rx="2" ry="2" style="rgb(0,0,0)"/>
<rect x="598" y="498" width="10" height="10" style="fill:rgb(255,255,255);stroke:rgb(0,0,0);stroke-width:1"/>
<line x1="600" y1="503" x2="606" y2="503" style="stroke:rgb(0,0,0);stroke-width:1"/>
<line x1="603" y1="500" x2="603" y2="506" style="stroke:rgb(0,0,0);stroke-width:1"/>

<rect x="628" y="543" width="120" height="22" style="fill:rgb(255,255,255);stroke:rgb(0,0,0);stroke-width:1"/>
<text x="688" y="554" style="font-family:Arial;font-size:8pt;fill:rgb(0,0,0);font-weight:bold;text-anchor:middle;dominant-baseline:central">NON-IDENTIFIABLE</text>
<line x1="630" y1="545" x2="638" y2="545" style="stroke:rgb(0,0,0);stroke-width:1"/>
<line x1="630" y1="547" x2="636" y2="547" style="stroke:rgb(0,0,0);stroke-width:1"/>
<line x1="630" y1="549" x2="636" y2="549" style="stroke:rgb(0,0,0);stroke-width:1"/>
<line x1="630" y1="551" x2="636" y2="551" style="stroke:rgb(0,0,0);stroke-width:1"/>

<rect x="628" y="595" width="78" height="22" style="fill:rgb(255,255,255);stroke:rgb(0,0,0);stroke-width:1;stroke-dasharray:4,1"/>
<text x="667" y="606" style="font-family:Arial;font-size:8pt;fill:rgb(0,0,0);font-weight:bold;text-anchor:middle;dominant-baseline:central">PURPOSE</text>
<line x1="629" y1="616" x2="632" y2="613" style="stroke:rgb(0,0,0);stroke-width:2"/>
<path d="M632 613 L634 615 L635 610 L630 611 L632 613 Z" style="fill:rgb(0,0,0)"/>
<rect x="701" y="601" width="10" height="10" style="fill:rgb(255,255,255);stroke:rgb(0,0,0);stroke-width:1"/>
<line x1="703" y1="606" x2="709" y2="606" style="stroke:rgb(0,0,0);stroke-width:1"/>
<line x1="706" y1="603" x2="706" y2="609" style="stroke:rgb(0,0,0);stroke-width:1"/>

<rect x="628" y="647" width="83" height="22" style="fill:rgb(255,255,255);stroke:rgb(0,0,0);stroke-width:1;stroke-dasharray:4,1"/>
<text x="669.5" y="658" style="font-family:Arial;font-size:8pt;fill:rgb(0,0,0);font-weight:bold;text-anchor:middle;dominant-baseline:central">RECIPIENT</text>
<line x1="629" y1="668" x2="632" y2="665" style="stroke:rgb(0,0,0);stroke-width:2"/>
<path d="M632 665 L634 667 L635 662 L630 663 L632 665 Z" style="fill:rgb(0,0,0)"/>
<rect x="706" y="653" width="10" height="10" style="fill:rgb(255,255,255);stroke:rgb(0,0,0);stroke-width:1"/>
<line x1="708" y1="658" x2="714" y2="658" style="stroke:rgb(0,0,0);stroke-width:1"/>
<line x1="711" y1="655" x2="711" y2="661" style="stroke:rgb(0,0,0);stroke-width:1"/>

<rect x="628" y="699" width="87" height="22" style="fill:rgb(255,255,255);stroke:rgb(0,0,0);stroke-width:1;stroke-dasharray:4,1"/>
<text x="671.5" y="710" style="font-family:Arial;font-size:8pt;fill:rgb(0,0,0);font-weight:bold;text-anchor:middle;dominant-baseline:central">RETENTION</text>
<line x1="629" y1="720" x2="632" y2="717" style="stroke:rgb(0,0,0);stroke-width:2"/>
<path d="M632 717 L634 719 L635 714 L630 715 L632 717 Z" style="fill:rgb(0,0,0)"/>
<rect x="710" y="705" width="10" height="10" style="fill:rgb(255,255,255);stroke:rgb(0,0,0);stroke-width:1"/>
<line x1="712" y1="710" x2="718" y2="710" style="stroke:rgb(0,0,0);stroke-width:1"/>
<line x1="715" y1="707" x2="715" y2="713" style="stroke:rgb(0,0,0);stroke-width:1"/>

<rect x="631" y="754" width="98" height="22" style="fill:rgb(255,255,255);stroke:rgb(0,0,0);stroke-width:1;stroke-dasharray:4,1"/>
<rect x="628" y="751" width="98" height="22" style="fill:rgb(255,255,255);stroke:rgb(0,0,0);stroke-width:1;stroke-dasharray:4,1"/>
<text x="677" y="762" style="font-family:Arial;font-size:8pt;fill:rgb(0,0,0);font-weight:bold;text-anchor:middle;dominant-baseline:central">DATA-GROUP</text>
<text x="721" y="783" style="font-family:Arial;font-size:7.2pt;fill:rgb(0,0,0);text-anchor:end;dominant-baseline:central">0..∞</text>
<rect x="721" y="757" width="10" height="10" style="fill:rgb(255,255,255);stroke:rgb(0,0,0);stroke-width:1"/>
<line x1="723" y1="762" x2="729" y2="762" style="stroke:rgb(0,0,0);stroke-width:1"/>
<line x1="726" y1="759" x2="726" y2="765" style="stroke:rgb(0,0,0);stroke-width:1"/>

<line x1="618" y1="554" x2="628" y2="554" style="stroke:rgb(0,0,0);stroke-width:1;stroke-linecap:round"/>
<line x1="618" y1="606" x2="628" y2="606" style="stroke:rgb(0,0,0);stroke-width:1;stroke-linecap:round"/>
<line x1="618" y1="658" x2="628" y2="658" style="stroke:rgb(0,0,0);stroke-width:1;stroke-linecap:round"/>
<line x1="618" y1="710" x2="628" y2="710" style="stroke:rgb(0,0,0);stroke-width:1;stroke-linecap:round"/>
<line x1="618" y1="762" x2="628" y2="762" style="stroke:rgb(0,0,0);stroke-width:1;stroke-linecap:round"/>
<line x1="618" y1="554" x2="618" y2="762" style="stroke:rgb(0,0,0);stroke-width:1;stroke-linecap:round"/>
<line x1="608" y1="658" x2="618" y2="658" style="stroke:rgb(0,0,0);stroke-width:1;stroke-linecap:round"/>
<path d="M574 648 L597 648 L603 654 L603 662 L597 668 L574 668 L568 662 L568 654 Z" style="fill:rgb(255,255,255);stroke:rgb(0,0,0);stroke-width:1"/>
<line x1="571" y1="658" x2="600" y2="658" style="stroke:rgb(0,0,0);stroke-width:1"/>
<ellipse cx="580" cy="658" rx="2" ry="2" style="rgb(0,0,0)"/>
<ellipse cx="585" cy="658" rx="2" ry="2" style="rgb(0,0,0)"/>
<ellipse cx="590" cy="658" rx="2" ry="2" style="rgb(0,0,0)"/>
<rect x="598" y="653" width="10" height="10" style="fill:rgb(255,255,255);stroke:rgb(0,0,0);stroke-width:1"/>
<line x1="600" y1="658" x2="606" y2="658" style="stroke:rgb(0,0,0);stroke-width:1"/>

<line x1="558" y1="503" x2="568" y2="503" style="stroke:rgb(0,0,0);stroke-width:1;stroke-linecap:round"/>
<line x1="558" y1="658" x2="568" y2="658" style="stroke:rgb(0,0,0);stroke-width:1;stroke-linecap:round"/>
<line x1="558" y1="503" x2="558" y2="658" style="stroke:rgb(0,0,0);stroke-width:1;stroke-linecap:round"/>
<line x1="548" y1="633" x2="558" y2="633" style="stroke:rgb(0,0,0);stroke-width:1;stroke-linecap:round"/>
<path d="M514 623 L537 623 L543 629 L543 637 L537 643 L514 643 L508 637 L508 629 Z" style="fill:rgb(255,255,255);stroke:rgb(0,0,0);stroke-width:1"/>
<line x1="513" y1="633" x2="517" y2="633" style="stroke:rgb(0,0,0);stroke-width:1"/>
<line x1="517" y1="633" x2="521" y2="629" style="stroke:rgb(0,0,0);stroke-width:1"/>
<line x1="529" y1="629" x2="533" y2="629" style="stroke:rgb(0,0,0);stroke-width:1"/>
<line x1="529" y1="633" x2="537" y2="633" style="stroke:rgb(0,0,0);stroke-width:1"/>
<line x1="529" y1="637" x2="533" y2="637" style="stroke:rgb(0,0,0);stroke-width:1"/>
<line x1="533" y1="629" x2="533" y2="637" style="stroke:rgb(0,0,0);stroke-width:1"/>
<ellipse cx="525" cy="629" rx="2" ry="2" style="rgb(0,0,0)"/>
<ellipse cx="525" cy="633" rx="2" ry="2" style="rgb(0,0,0)"/>
<ellipse cx="525" cy="637" rx="2" ry="2" style="rgb(0,0,0)"/>
<rect x="538" y="628" width="10" height="10" style="fill:rgb(255,255,255);stroke:rgb(0,0,0);stroke-width:1"/>
<line x1="540" y1="633" x2="546" y2="633" style="stroke:rgb(0,0,0);stroke-width:1"/>

<rect x="511" y="806" width="87" height="22" style="fill:rgb(255,255,255);stroke:rgb(0,0,0);stroke-width:1;stroke-dasharray:4,1"/>
<rect x="508" y="803" width="87" height="22" style="fill:rgb(255,255,255);stroke:rgb(0,0,0);stroke-width:1;stroke-dasharray:4,1"/>
<text x="551.5" y="814" style="font-family:Arial;font-size:8pt;fill:rgb(0,0,0);font-weight:bold;text-anchor:middle;dominant-baseline:central">EXTENSION</text>
<text x="590" y="835" style="font-family:Arial;font-size:7.2pt;fill:rgb(0,0,0);text-anchor:end;dominant-baseline:central">0..∞</text>
<line x1="510" y1="805" x2="518" y2="805" style="stroke:rgb(0,0,0);stroke-width:1"/>
<line x1="510" y1="807" x2="516" y2="807" style="stroke:rgb(0,0,0);stroke-width:1"/>
<line x1="510" y1="809" x2="516" y2="809" style="stroke:rgb(0,0,0);stroke-width:1"/>
<line x1="510" y1="811" x2="516" y2="811" style="stroke:rgb(0,0,0);stroke-width:1"/>
<line x1="509" y1="824" x2="512" y2="821" style="stroke:rgb(0,0,0);stroke-width:2"/>
<path d="M512 821 L514 823 L515 818 L510 819 L512 821 Z" style="fill:rgb(0,0,0)"/>
<rect x="590" y="809" width="10" height="10" style="fill:rgb(255,255,255);stroke:rgb(0,0,0);stroke-width:1"/>
<line x1="592" y1="814" x2="598" y2="814" style="stroke:rgb(0,0,0);stroke-width:1"/>
<line x1="595" y1="811" x2="595" y2="817" style="stroke:rgb(0,0,0);stroke-width:1"/>

<line x1="498" y1="400" x2="508" y2="400" style="stroke:rgb(0,0,0);stroke-width:1;stroke-linecap:round"/>
<line x1="498" y1="452" x2="508" y2="452" style="stroke:rgb(0,0,0);stroke-width:1;stroke-linecap:round"/>
<line x1="498" y1="633" x2="508" y2="633" style="stroke:rgb(0,0,0);stroke-width:1;stroke-linecap:round"/>
<line x1="498" y1="814" x2="508" y2="814" style="stroke:rgb(0,0,0);stroke-width:1;stroke-linecap:round"/>
<line x1="498" y1="400" x2="498" y2="814" style="stroke:rgb(0,0,0);stroke-width:1;stroke-linecap:round"/>
<line x1="488" y1="607" x2="498" y2="607" style="stroke:rgb(0,0,0);stroke-width:1;stroke-linecap:round"/>
<path d="M454 597 L477 597 L483 603 L483 611 L477 617 L454 617 L448 611 L448 603 Z" style="fill:rgb(255,255,255);stroke:rgb(0,0,0);stroke-width:1"/>
<line x1="451" y1="607" x2="480" y2="607" style="stroke:rgb(0,0,0);stroke-width:1"/>
<ellipse cx="460" cy="607" rx="2" ry="2" style="rgb(0,0,0)"/>
<ellipse cx="465" cy="607" rx="2" ry="2" style="rgb(0,0,0)"/>
<ellipse cx="470" cy="607" rx="2" ry="2" style="rgb(0,0,0)"/>
<rect x="478" y="602" width="10" height="10" style="fill:rgb(255,255,255);stroke:rgb(0,0,0);stroke-width:1"/>
<line x1="480" y1="607" x2="486" y2="607" style="stroke:rgb(0,0,0);stroke-width:1"/>

<line x1="428" y1="607" x2="448" y2="607" style="stroke:rgb(0,0,0);stroke-width:1;stroke-linecap:round"/>
<rect x="335" y="599" width="91" height="22" style="fill:rgb(255,255,255);stroke:rgb(0,0,0);stroke-width:1"/>
<rect x="332" y="596" width="91" height="22" style="fill:rgb(255,255,255);stroke:rgb(0,0,0);stroke-width:1"/>
<text x="377.5" y="607" style="font-family:Arial;font-size:8pt;fill:rgb(0,0,0);font-weight:bold;text-anchor:middle;dominant-baseline:central">STATEMENT</text>
<text x="418" y="628" style="font-family:Arial;font-size:7.2pt;fill:rgb(0,0,0);text-anchor:end;dominant-baseline:central">1..∞</text>
<line x1="333" y1="617" x2="336" y2="614" style="stroke:rgb(0,0,0);stroke-width:2"/>
<path d="M336 614 L338 616 L339 611 L334 612 L336 614 Z" style="fill:rgb(0,0,0)"/>
<rect x="418" y="602" width="10" height="10" style="fill:rgb(255,255,255);stroke:rgb(0,0,0);stroke-width:1"/>
<line x1="420" y1="607" x2="426" y2="607" style="stroke:rgb(0,0,0);stroke-width:1"/>

<rect x="335" y="858" width="87" height="22" style="fill:rgb(255,255,255);stroke:rgb(0,0,0);stroke-width:1;stroke-dasharray:4,1"/>
<rect x="332" y="855" width="87" height="22" style="fill:rgb(255,255,255);stroke:rgb(0,0,0);stroke-width:1;stroke-dasharray:4,1"/>
<text x="375.5" y="866" style="font-family:Arial;font-size:8pt;fill:rgb(0,0,0);font-weight:bold;text-anchor:middle;dominant-baseline:central">EXTENSION</text>
<text x="414" y="887" style="font-family:Arial;font-size:7.2pt;fill:rgb(0,0,0);text-anchor:end;dominant-baseline:central">0..∞</text>
<line x1="334" y1="857" x2="342" y2="857" style="stroke:rgb(0,0,0);stroke-width:1"/>
<line x1="334" y1="859" x2="340" y2="859" style="stroke:rgb(0,0,0);stroke-width:1"/>
<line x1="334" y1="861" x2="340" y2="861" style="stroke:rgb(0,0,0);stroke-width:1"/>
<line x1="334" y1="863" x2="340" y2="863" style="stroke:rgb(0,0,0);stroke-width:1"/>
<line x1="333" y1="876" x2="336" y2="873" style="stroke:rgb(0,0,0);stroke-width:2"/>
<path d="M336 873 L338 875 L339 870 L334 871 L336 873 Z" style="fill:rgb(0,0,0)"/>
<rect x="414" y="861" width="10" height="10" style="fill:rgb(255,255,255);stroke:rgb(0,0,0);stroke-width:1"/>
<line x1="416" y1="866" x2="422" y2="866" style="stroke:rgb(0,0,0);stroke-width:1"/>
<line x1="419" y1="863" x2="419" y2="869" style="stroke:rgb(0,0,0);stroke-width:1"/>

<line x1="322" y1="140" x2="332" y2="140" style="stroke:rgb(0,0,0);stroke-width:1;stroke-linecap:round"/>
<line x1="322" y1="192" x2="332" y2="192" style="stroke:rgb(0,0,0);stroke-width:1;stroke-linecap:round"/>
<line x1="322" y1="244" x2="332" y2="244" style="stroke:rgb(0,0,0);stroke-width:1;stroke-linecap:round"/>
<line x1="322" y1="296" x2="332" y2="296" style="stroke:rgb(0,0,0);stroke-width:1;stroke-linecap:round"/>
<line x1="322" y1="348" x2="332" y2="348" style="stroke:rgb(0,0,0);stroke-width:1;stroke-linecap:round"/>
<line x1="322" y1="607" x2="332" y2="607" style="stroke:rgb(0,0,0);stroke-width:1;stroke-linecap:round"/>
<line x1="322" y1="866" x2="332" y2="866" style="stroke:rgb(0,0,0);stroke-width:1;stroke-linecap:round"/>
<line x1="322" y1="140" x2="322" y2="866" style="stroke:rgb(0,0,0);stroke-width:1;stroke-linecap:round"/>
<line x1="312" y1="503" x2="322" y2="503" style="stroke:rgb(0,0,0);stroke-width:1;stroke-linecap:round"/>
<path d="M278 493 L301 493 L307 499 L307 507 L301 513 L278 513 L272 507 L272 499 Z" style="fill:rgb(255,255,255);stroke:rgb(0,0,0);stroke-width:1"/>
<line x1="275" y1="503" x2="304" y2="503" style="stroke:rgb(0,0,0);stroke-width:1"/>
<ellipse cx="284" cy="503" rx="2" ry="2" style="rgb(0,0,0)"/>
<ellipse cx="289" cy="503" rx="2" ry="2" style="rgb(0,0,0)"/>
<ellipse cx="294" cy="503" rx="2" ry="2" style="rgb(0,0,0)"/>
<rect x="302" y="498" width="10" height="10" style="fill:rgb(255,255,255);stroke:rgb(0,0,0);stroke-width:1"/>
<line x1="304" y1="503" x2="310" y2="503" style="stroke:rgb(0,0,0);stroke-width:1"/>

<line x1="252" y1="503" x2="272" y2="503" style="stroke:rgb(0,0,0);stroke-width:1;stroke-linecap:round"/>
<rect x="184" y="495" width="66" height="22" style="fill:rgb(255,255,255);stroke:rgb(0,0,0);stroke-width:1;stroke-dasharray:4,1"/>
<rect x="181" y="492" width="66" height="22" style="fill:rgb(255,255,255);stroke:rgb(0,0,0);stroke-width:1;stroke-dasharray:4,1"/>
<text x="214" y="503" style="font-family:Arial;font-size:8pt;fill:rgb(0,0,0);font-weight:bold;text-anchor:middle;dominant-baseline:central">POLICY</text>
<text x="242" y="524" style="font-family:Arial;font-size:7.2pt;fill:rgb(0,0,0);text-anchor:end;dominant-baseline:central">0..∞</text>
<line x1="182" y1="513" x2="185" y2="510" style="stroke:rgb(0,0,0);stroke-width:2"/>
<path d="M185 510 L187 512 L188 507 L183 508 L185 510 Z" style="fill:rgb(0,0,0)"/>
<rect x="242" y="498" width="10" height="10" style="fill:rgb(255,255,255);stroke:rgb(0,0,0);stroke-width:1"/>
<line x1="244" y1="503" x2="250" y2="503" style="stroke:rgb(0,0,0);stroke-width:1"/>

<line x1="171" y1="36" x2="181" y2="36" style="stroke:rgb(0,0,0);stroke-width:1;stroke-linecap:round"/>
<line x1="171" y1="88" x2="181" y2="88" style="stroke:rgb(0,0,0);stroke-width:1;stroke-linecap:round"/>
<line x1="171" y1="503" x2="181" y2="503" style="stroke:rgb(0,0,0);stroke-width:1;stroke-linecap:round"/>
<line x1="171" y1="36" x2="171" y2="503" style="stroke:rgb(0,0,0);stroke-width:1;stroke-linecap:round"/>
<line x1="161" y1="451" x2="171" y2="451" style="stroke:rgb(0,0,0);stroke-width:1;stroke-linecap:round"/>
<path d="M127 441 L150 441 L156 447 L156 455 L150 461 L127 461 L121 455 L121 447 Z" style="fill:rgb(255,255,255);stroke:rgb(0,0,0);stroke-width:1"/>
<line x1="124" y1="451" x2="153" y2="451" style="stroke:rgb(0,0,0);stroke-width:1"/>
<ellipse cx="133" cy="451" rx="2" ry="2" style="rgb(0,0,0)"/>
<ellipse cx="138" cy="451" rx="2" ry="2" style="rgb(0,0,0)"/>
<ellipse cx="143" cy="451" rx="2" ry="2" style="rgb(0,0,0)"/>
<rect x="151" y="446" width="10" height="10" style="fill:rgb(255,255,255);stroke:rgb(0,0,0);stroke-width:1"/>
<line x1="153" y1="451" x2="159" y2="451" style="stroke:rgb(0,0,0);stroke-width:1"/>

<line x1="101" y1="451" x2="121" y2="451" style="stroke:rgb(0,0,0);stroke-width:1;stroke-linecap:round"/>
<rect x="20" y="440" width="76" height="22" style="fill:rgb(255,255,255);stroke:rgb(0,0,0);stroke-width:1"/>
<text x="58" y="451" style="font-family:Arial;font-size:8pt;fill:rgb(0,0,0);font-weight:bold;text-anchor:middle;dominant-baseline:central">POLICIES</text>
<rect x="91" y="446" width="10" height="10" style="fill:rgb(255,255,255);stroke:rgb(0,0,0);stroke-width:1"/>
<line x1="93" y1="451" x2="99" y2="451" style="stroke:rgb(0,0,0);stroke-width:1"/>
</svg>
